<svg width="24" height="30" viewBox="0 0 24 30" fill="none" xmlns="http://www.w3.org/2000/svg">
<path d="M22.5 24.25H17.5M22.5 24.25C22.0848 26.1536 21.6142 27.1589 20 28.75C19.6072 28.3044 19.2787 27.9082 19 27.5344C18.204 26.4666 17.8152 25.5815 17.5 24.25M22.5 24.25V7.75M17.5 24.25V7.75M22.5 5.25V2.25C22.5 1.69772 22.0523 1.25 21.5 1.25H17.5V5.25M22.5 5.25H17.5M22.5 5.25V7.75M17.5 5.25V7.75M22.5 7.75H20H17.5M8.5 4.75V3.25C8.5 2.14543 9.39562 1.25 10.5002 1.25C11.7891 1.25 12.9065 1.25 14.5 1.25V8.125M8.5 4.75H6.5C5.39543 4.75 4.5 5.64543 4.5 6.75V11.25M8.5 4.75H10M4.5 11.25H3C1.89543 11.25 1 12.1454 1 13.25V16.75C1 17.8546 1.89543 18.75 3 18.75H4.5M4.5 11.25H10M4.5 18.75V22.75C4.5 23.8546 5.39543 24.75 6.5 24.75H8.5M4.5 18.75H10M8.5 24.75V26.75C8.5 27.8546 9.39543 28.75 10.5 28.75H14.5V21.875M8.5 24.75H10M14.5 15H4M14.5 15V21.875M14.5 15V8.125M14.5 21.875H8M14.5 8.125H8" stroke="black" stroke-width="1.5"/>
</svg>
