<svg width="18" height="25" viewBox="0 0 18 25" fill="none" xmlns="http://www.w3.org/2000/svg">
<path d="M8.99983 15.7895C7.91802 15.7895 6.99848 15.4057 6.24121 14.6382C5.48395 13.8706 5.10531 12.9386 5.10531 11.8421V3.94737C5.10531 2.85088 5.48395 1.91886 6.24121 1.15132C6.99848 0.383772 7.91802 0 8.99983 0C10.0816 0 11.0012 0.383772 11.7584 1.15132C12.5157 1.91886 12.8943 2.85088 12.8943 3.94737V11.8421C12.8943 12.9386 12.5157 13.8706 11.7584 14.6382C11.0012 15.4057 10.0816 15.7895 8.99983 15.7895ZM7.70166 23.6842V20.9539C5.71113 20.6689 4.00749 19.8136 2.59075 18.3882C1.17401 16.9627 0.313758 15.2303 0.00998591 13.1908C-0.0332865 12.818 0.0640769 12.5 0.302075 12.2368C0.540074 11.9737 0.84298 11.8421 1.2108 11.8421C1.57861 11.8421 1.88714 11.9684 2.13639 12.2211C2.38564 12.4737 2.55311 12.786 2.63879 13.1579C2.94169 14.693 3.69377 15.9539 4.89501 16.9408C6.09625 17.9276 7.46453 18.421 8.99983 18.421C10.5576 18.421 11.9315 17.9224 13.1215 16.925C14.3115 15.9276 15.058 14.6719 15.3609 13.1579C15.4474 12.7851 15.6153 12.4728 15.8646 12.2211C16.1138 11.9693 16.4219 11.843 16.7889 11.8421C17.1558 11.8412 17.4587 11.9728 17.6976 12.2368C17.9365 12.5009 18.0338 12.8189 17.9897 13.1908C17.6868 15.1864 16.8321 16.9079 15.4258 18.3553C14.0194 19.8026 12.3102 20.6689 10.298 20.9539V23.6842C10.298 24.057 10.1734 24.3697 9.92413 24.6224C9.67488 24.875 9.36678 25.0009 8.99983 25C8.63288 24.9991 8.32478 24.8728 8.07553 24.621C7.82628 24.3693 7.70166 24.057 7.70166 23.6842Z" fill="black"/>
</svg>
