<svg width="24" height="30" viewBox="0 0 24 30" fill="none" xmlns="http://www.w3.org/2000/svg">
<path d="M22.5 23.75H17.5M22.5 23.75C22.0848 25.6536 21.6142 26.6589 20 28.25C19.6072 27.8044 19.2787 27.4082 19 27.0344C18.204 25.9666 17.8152 25.0815 17.5 23.75M22.5 23.75V7.25M17.5 23.75V7.25M22.5 4.75V1.75C22.5 1.19772 22.0523 0.75 21.5 0.75H17.5V4.75M22.5 4.75H17.5M22.5 4.75V7.25M17.5 4.75V7.25M22.5 7.25H20H17.5M8.5 4.25V2.75C8.5 1.64543 9.39562 0.75 10.5002 0.75C11.7891 0.75 12.9065 0.75 14.5 0.75V7.625M8.5 4.25H6.5C5.39543 4.25 4.5 5.14543 4.5 6.25V10.75M8.5 4.25H10M4.5 10.75H3C1.89543 10.75 1 11.6454 1 12.75V16.25C1 17.3546 1.89543 18.25 3 18.25H4.5M4.5 10.75H10M4.5 18.25V22.25C4.5 23.3546 5.39543 24.25 6.5 24.25H8.5M4.5 18.25H10M8.5 24.25V26.25C8.5 27.3546 9.39543 28.25 10.5 28.25H14.5V21.375M8.5 24.25H10M14.5 14.5H4M14.5 14.5V21.375M14.5 14.5V7.625M14.5 21.375H8M14.5 7.625H8" stroke="white" stroke-width="1.5"/>
</svg>
